<svg width="2560" height="1440" viewBox="0 0 2560 1440" fill="none" xmlns="http://www.w3.org/2000/svg">
<g clip-path="url(#clip0_2_9)">
<rect width="2560" height="1440" fill="#00DDFF"/>
<rect x="1280" y="817" width="400" height="400" fill="#552D00"/>
<rect x="1405" y="992" width="150" height="225" fill="black" fill-opacity="0.5"/>
<path d="M1541.58 1119.17C1541.07 1118.85 1540.62 1119.58 1540.27 1119.83C1539.69 1120.25 1539.24 1120.31 1539.24 1121.1C1539.24 1122.14 1540.28 1122.63 1541.26 1122.27C1542.61 1121.78 1543.61 1121.05 1543.77 1119.59C1543.88 1118.6 1543.78 1117.6 1542.82 1117.14C1542.34 1116.92 1541.78 1117.31 1541.35 1117.45C1540.58 1117.7 1539.89 1118.11 1539.32 1118.69C1538.91 1119.09 1538.62 1119.44 1538.57 1120.05C1538.49 1120.93 1538.6 1121.17 1539.18 1121.78C1539.52 1122.13 1539.69 1122.67 1540.14 1122.91C1540.63 1123.17 1541.3 1123.16 1541.84 1123.16C1542.88 1123.16 1543.94 1123.09 1544.31 1121.87C1544.6 1120.92 1544.73 1120.19 1544.3 1119.31C1543.94 1118.6 1542.98 1118.25 1542.27 1118.2C1541.16 1118.14 1540.12 1117.94 1539 1117.94C1538.63 1117.94 1538.26 1117.78 1537.98 1117.56C1537.59 1117.25 1536.16 1117.53 1535.67 1117.53C1533.11 1117.53 1530.54 1117.53 1527.98 1117.53C1526.47 1117.53 1524.96 1117.39 1523.45 1117.39C1521.59 1117.39 1519.82 1116.84 1517.96 1116.84" stroke="#888888" stroke-width="10" stroke-linecap="round"/>
<path d="M1480 547L1761.46 817H1198.54L1480 547Z" fill="#DD0000"/>
<path d="M2687 1443.54H1046C1218 1321.54 1646.4 1076.64 1984 1073.04C2321.6 1069.44 2593.33 1318.54 2687 1443.54Z" fill="#00CC00" stroke="black"/>
<path d="M0 1440.24V710.245C933.6 653.845 1495.33 1173.41 1659.5 1440.24H0Z" fill="#00FF00" stroke="black"/>
<path d="M2035 0C2035 68.944 2048.58 137.213 2074.96 200.909C2101.35 264.605 2140.02 322.48 2188.77 371.231C2237.52 419.982 2295.4 458.653 2359.09 485.037C2422.79 511.42 2491.06 525 2560 525L2560 0L2035 0Z" fill="#FF0000"/>
<path d="M2059.62 118.756C2058.94 112.653 2037.1 112.98 2031.62 111.153C2021.21 107.682 2011.46 104.798 2000.78 102.129C1987.49 98.8048 1972.58 96.9975 1960.64 90.1202C1955.71 87.2836 1951.31 84.5572 1946.85 81.0249C1941.76 76.9897 1933.86 75.9351 1927.81 73.9192C1907.35 67.1 1887.35 66.3161 1865.92 66.3161C1856.26 66.3161 1846.42 65.7973 1836.79 66.6003C1824.42 67.6307 1812.8 73.9409 1801.97 79.6748C1795.87 82.9006 1791.02 89.6287 1785.06 93.4598C1775.41 99.6591 1782.53 100.86 1791.02 103.408" stroke="#FF0000" stroke-width="30" stroke-linecap="round"/>
<path d="M2126.13 166.08C2093.35 166.08 2060.34 170.371 2027.71 172.546C2014.35 173.437 2001.3 176.312 1987.64 176.312C1960.87 176.312 1935.69 177.074 1909.41 181.713C1899.25 183.505 1895.12 189.19 1888.23 196.208C1876.95 207.709 1869.11 222.269 1855.33 231.452C1841.52 240.657 1826.16 246.284 1811.49 253.622C1801.47 258.63 1788.89 257.032 1779.51 263.286" stroke="#FF0000" stroke-width="30" stroke-linecap="round"/>
<path d="M2137.64 238.984C2129.78 238.984 2121.91 238.984 2114.05 238.984C2099 238.984 2087.18 247.036 2074.83 254.759C2068.58 258.66 2054.5 267.251 2054.5 275.366C2054.5 285.085 2053.87 293.493 2052.23 303.078C2050.04 315.861 2033.02 329.326 2023.52 337.469C2016.86 343.183 2010.07 348.944 2003.13 354.31C1995.9 359.895 1989.85 367.969 1982.03 372.713C1970.63 379.628 1959.35 388.772 1948.34 396.589C1945.69 398.474 1932.81 403.612 1939.39 405.258" stroke="#FF0000" stroke-width="30" stroke-linecap="round"/>
<path d="M2250.19 345.143C2240.5 349.068 2205 364.789 2217.15 380.743C2222.51 387.775 2222.06 396.173 2225.25 403.836C2226.4 406.585 2228.01 409.908 2228.38 412.861C2229.07 418.346 2224.61 421.504 2221.63 425.58C2217.78 430.85 2214.12 436.177 2210.54 441.639C2203.27 452.757 2198.19 462.87 2187.24 470.772C2178.36 477.176 2168.56 481.855 2160.17 488.963C2149.41 498.065 2136.85 502.35 2124.42 508.148C2117.15 511.543 2108.94 510.988 2101.83 515.254" stroke="#FF0000" stroke-width="30" stroke-linecap="round"/>
<path d="M2370.42 467.93C2362.98 469.218 2355.04 470.12 2348.25 473.614C2341.51 477.09 2333.38 477.326 2327.15 481.999C2315.6 490.657 2310.31 499.345 2310.31 513.406C2310.31 521.048 2314.15 527.674 2314.15 535.221C2314.15 546.661 2314.15 558.101 2314.15 569.541C2314.15 580.255 2312.02 592.091 2308.46 602.227C2304.3 614.092 2294.38 622.168 2285.3 629.797C2274.52 638.854 2256.51 643.479 2243.51 648.272C2234.81 651.483 2225.88 653.712 2216.94 655.946" stroke="#FF0000" stroke-width="30" stroke-linecap="round"/>
<path d="M2479.14 499.905C2470.27 507.837 2458.66 512.433 2449.65 519.943C2439.92 528.05 2442.06 541.101 2449.08 550.285C2454.2 556.979 2459.95 562.593 2459.95 571.531C2459.95 583.627 2460.76 596.018 2459.67 608.054C2458.69 618.844 2459.8 629.876 2458.6 640.598C2457.98 646.203 2453.86 650.906 2452.28 656.231C2450.01 663.881 2449.45 672.001 2446.52 679.466C2444.68 684.181 2443.65 686.997 2443.26 692.256C2442.91 696.894 2441.36 699.561 2436.93 700.996C2429.62 703.367 2423.61 709.844 2416.47 712.223" stroke="#FF0000" stroke-width="30" stroke-linecap="round"/>
<path d="M2263.99 52.8221C2263.58 56.1548 2254.98 57.2284 2253.16 61.3345C2250.84 66.5508 2245.3 70.4488 2241.46 74.4899C2236.47 79.7521 2231.71 85.1248 2226.16 89.8809C2220.97 94.3256 2221.04 99.5148 2228.39 94.6099" stroke="black" stroke-width="30" stroke-linecap="round"/>
<path d="M2265.54 59.0129C2272.17 59.0129 2275.57 68.8588 2279.81 73.2861C2285.5 79.2217 2292.37 87.6575 2299.93 91.1706C2306 93.9886 2309.2 99.2503 2314.29 103.208C2318.36 106.37 2323.1 108.565 2328.05 110.087C2330.07 110.708 2336.08 111.461 2333.64 114.042C2325.52 122.614 2317.25 131.487 2310.42 141.041C2306.84 146.058 2300.91 154.934 2294.17 156.432C2287.41 157.935 2278.07 147.472 2273.11 143.792C2256.25 131.293 2234.95 121.289 2220.66 106.992" stroke="black" stroke-width="30" stroke-linecap="round"/>
<path d="M2259.47 87.8301C2251.47 87.8301 2245.48 94.0781 2239.4 98.456C2237.45 99.8602 2237.13 101.354 2239.72 101.354C2244.17 101.354 2248.2 98.479 2251.96 96.3094C2272.21 84.6097 2243.33 107.425 2246.38 108.867C2250.86 110.99 2257.3 107.272 2261.13 105.647C2268.09 102.699 2273.94 99.1543 2280.29 95.4507C2287.26 91.3874 2270.43 108.218 2265.8 114.824C2265.01 115.962 2261.51 120.851 2262.58 122.606C2264.45 125.654 2272.42 121.42 2274.5 120.674C2277.01 119.771 2279.67 119.088 2282.01 117.776C2283.08 117.179 2285.42 114.659 2285.12 115.844C2284.51 118.284 2271.4 129.782 2274.18 132.051C2276.33 133.817 2282.66 130.241 2284.53 129.368C2285.79 128.78 2293.19 124.583 2289.63 126.684C2285.1 129.355 2281.53 135.246 2288.45 129.582C2297.95 121.808 2277.92 124.538 2274.5 124.538C2268.42 124.538 2269.57 119.514 2273.96 117.561C2278.92 115.355 2284.59 113.685 2289.95 112.194C2292.22 111.565 2300.47 109.478 2296.5 114.878C2293.99 118.29 2291.35 122.07 2291.35 126.47C2291.35 130.983 2299.07 127.444 2300.04 124.538" stroke="black" stroke-width="30" stroke-linecap="round"/>
<path d="M2318.4 146.755C2318.57 145.529 2320.74 148.564 2321.29 149.117C2323.69 151.509 2325.67 154.234 2328.59 155.986C2335.51 160.136 2341.34 166.377 2347.75 171.281C2351.03 173.791 2354.66 175.063 2357.79 177.882C2359.13 179.089 2363.35 181.596 2363.8 182.497" stroke="black" stroke-width="30" stroke-linecap="round"/>
<path d="M2393.74 162.211C2393.29 166.284 2389.38 169.498 2387.52 172.891C2384.66 178.081 2381.09 182.722 2377.32 187.327C2372.3 193.463 2368.08 199.875 2363.8 206.432C2362.84 207.903 2359.14 217.165 2357.57 217.165C2356.03 217.165 2359.85 215.072 2360.85 213.891C2362.12 212.382 2363.04 210.632 2364.28 209.115C2366.27 206.685 2368.21 203.958 2370.56 201.87C2377.34 195.844 2384.93 190.838 2391.6 184.644C2395.62 180.905 2400.5 177.153 2400.5 171.334C2400.5 165.246 2407.47 165.813 2409.95 162.211C2410.64 161.203 2413.4 158.007 2414.46 157.596C2416.92 156.637 2422.12 163.707 2423.9 164.894C2434.57 172.004 2447.51 178.242 2459.43 182.926C2469.39 186.84 2479.45 190.222 2489.59 193.874C2492.31 194.854 2501.73 198.874 2499.09 202.139C2492.68 210.071 2484.1 216.075 2480.25 225.966C2477.9 232.026 2474.77 237.536 2471.45 243.139C2470.6 244.583 2471.47 246.285 2470.81 247.755C2470.17 249.171 2468.94 250.276 2468.34 251.833C2467.68 253.534 2464.85 257.73 2463.29 258.595C2461.73 259.462 2456.66 255.543 2455.03 254.892C2452.03 253.692 2449.84 251.426 2446.5 251.136C2443.35 250.862 2441.3 249.721 2438.77 247.755C2433.48 243.64 2426.38 241.691 2420.41 238.578C2416.68 236.631 2412.34 231.762 2408.13 231.762C2399.75 231.762 2392.05 227.496 2383.87 226.932C2376.69 226.438 2369.45 226.04 2362.35 224.947C2353.61 223.603 2368.2 213.34 2370.02 211.798C2375.81 206.897 2380.18 200.539 2386.02 195.699C2391.09 191.486 2396.35 187.296 2401.47 183.141C2403.56 181.443 2413.51 176.75 2412.74 177.56C2404.16 186.62 2398.93 198.446 2390.9 207.988C2386.75 212.914 2394.24 209.556 2396.86 208.149C2406.15 203.152 2413.53 195.267 2422.51 189.903C2425.26 188.257 2426.8 187.082 2428.89 184.751C2430.63 182.818 2425.84 189.053 2423.8 190.654C2420.87 192.939 2411.24 197.779 2411.24 202.246C2411.24 203.911 2426.21 195.933 2428.09 194.894C2430.2 193.727 2446.41 183.066 2446.82 186.951C2447.51 193.537 2443.62 200.771 2440.33 206.217C2438.48 209.266 2436.39 211.582 2433.99 214.16C2433.78 214.393 2432.8 217.07 2433.78 216.628C2439.92 213.866 2444.92 208.279 2450.68 204.822C2453 203.431 2459.7 195.625 2457.87 200.904C2456.04 206.194 2450.19 210.529 2446.87 215.018C2443.33 219.815 2452.48 215.365 2453.63 214.696C2457.85 212.26 2461.38 208.826 2465.55 206.325C2468.32 204.662 2471.4 201.371 2470.27 205.895C2469.56 208.757 2457.11 228.617 2457.5 228.65C2459.12 228.785 2451.23 239.657 2448.37 236.538C2446.44 234.43 2442.08 232.338 2441.08 229.83C2440.18 227.586 2438.75 224.673 2436.19 224.034C2431.91 222.962 2428.32 219.412 2423.69 218.238C2419.61 217.205 2409.82 215.461 2405.76 217.487C2403.13 218.804 2408.76 219.204 2409.2 219.204C2412.74 219.204 2416.28 219.204 2419.82 219.204" stroke="black" stroke-width="30" stroke-linecap="round"/>
</g>
<defs>
<clipPath id="clip0_2_9">
<rect width="2560" height="1440" fill="white"/>
</clipPath>
</defs>
</svg>
