<svg width="976" height="751" viewBox="0 0 976 751" fill="none" xmlns="http://www.w3.org/2000/svg">
<path d="M64.3063 571.238C67.6773 570.02 59.6212 565.675 59.214 563.015C57.4713 551.631 63.1475 534.574 66.1427 523.351C70.2117 508.105 76.3712 491.029 82.9593 476.946C89.7023 462.532 96.8208 448.308 103.936 434.02C109.181 423.489 117.612 414.547 121.737 403.757C127.823 387.839 142.743 376.755 151.351 362.444C163.316 342.555 183.261 329.536 200.873 315.048C213.652 304.536 225.729 293.263 238.087 282.256C266.217 257.2 301.619 241.448 334.669 224.725C351.871 216.02 371.743 209.619 390.447 205.42C414.547 200.009 438.986 192.766 463.555 190.083C500.959 185.999 538.944 185.953 576.372 185.854C609.049 185.767 640.982 190.27 672.257 199.852C693.573 206.382 710.26 224.642 731.338 232.016C748.197 237.915 762.676 249.717 778.408 257.835C784.977 261.224 791.413 267.114 797.681 271.162C803.131 274.682 809.419 281.643 813.523 286.768C821.579 296.827 829.208 307.541 836.603 317.972C840.762 323.837 848.682 325.449 853.312 331.23C855.971 334.55 858.982 338.239 862.576 340.561C869.648 345.128 874.996 354.976 877.078 363.141C880.25 375.586 886.139 387.069 888.898 399.673" stroke="#BBBB00" stroke-width="100" stroke-linecap="round"/>
<path d="M297.88 439.458C327.69 443.437 357.5 447.415 387.31 451.394C401.264 453.256 413.703 451.783 427.476 452.938C438.478 453.861 449.09 446.231 460.468 446.104C470.006 445.997 478.294 441.996 487.681 441.891C507.643 441.668 528.157 435.483 548.166 433.531C579.366 430.489 604.7 417.664 630.492 400.312C654.439 384.202 670.462 364.305 688.84 342.372C698.631 330.687 705.508 316.999 714.252 304.525C721.687 293.918 731.161 283.78 733.812 270.667C738.299 248.481 744.869 227.183 737.631 205.026C734.422 195.199 729.394 185.935 725.458 176.368C719.813 162.649 709.66 153.883 701.709 141.819C686.406 118.6 666.237 92.2704 642.326 77.2834C594.417 47.2553 530.937 47.6492 476.759 54.1264C454.995 56.7283 432.302 55.6421 411.292 61.3969C377.901 70.5427 342.354 82.6871 311.528 98.4377C262.225 123.629 215.434 163.376 199.998 218.824C193.855 240.892 192.747 264.202 191.47 286.911C189.97 313.568 196.666 339.659 196.731 366.38C196.763 379.604 199.918 392.34 201.392 405.378C202.669 416.679 202.511 428.8 205.709 439.772C211.208 458.637 219.936 476.014 225.75 494.817C228.669 504.256 232.41 510.885 236.663 519.49C240.36 526.968 241.755 535.061 247.401 541.489C255.691 550.927 260.126 562.238 270.495 569.802C277.539 574.941 283.172 581.746 289.257 587.996C299.645 598.666 314.554 610.414 327.513 616.318C340.156 622.078 348.607 634.708 360.838 641.544C366.436 644.673 371.968 649.974 376.87 654.179C382.017 658.593 388.236 660.509 393.988 664.096C405.683 671.391 424.02 669.972 434.074 679.941C442.854 688.649 461.572 690.124 473.824 691.925C486.46 693.783 498.488 697.125 511.203 698.822C532.485 701.663 552.762 701.502 572.953 693.6C582.781 689.753 597.051 685.243 605.596 678.981C613.737 673.015 626.859 669.759 632.33 661.558" stroke="#00AABB" stroke-width="100" stroke-linecap="round"/>
<path d="M62.4156 589.103C64.449 595.144 72.3904 592.742 74.3532 599.985C75.1711 603.003 75.2956 611.028 78.1705 612.584C81.6552 614.47 85.596 619.065 89.4238 619.852C99.7591 621.976 110.71 621.817 120.898 624.405C145.31 630.605 167.756 626.492 193.141 623.564C206.2 622.058 221.552 619.224 234.259 616.369C252.204 612.336 270.238 610.471 288.388 607.971C328.733 602.415 369.135 595.746 408.964 586.794C423.81 583.458 438.656 580.121 453.502 576.785C470.651 572.931 490.079 569.454 506.251 562.561C517.184 557.902 528.782 556.686 540.06 553.025C554.648 548.291 568.76 542.263 583.499 537.988C596.871 534.109 610.622 529.847 624.169 526.802C633.286 524.753 639.743 519.426 648.869 517.375C671.033 512.394 691.828 503.845 714.058 498.849C747.666 491.296 780.732 481.211 813.259 469.772C830.086 463.854 846.247 457.835 862.783 450.998C872.564 446.954 883.997 445.802 892.624 439.34C906.636 428.844 925.275 424.141 925.839 402.808" stroke="#BBBB00" stroke-width="100" stroke-linecap="round"/>
<path d="M95.8571 552.624C98.9612 551.517 91.5443 547.572 91.1698 545.155C89.5673 534.814 94.7967 519.318 97.5566 509.122C101.306 495.27 106.98 479.757 113.049 466.962C119.26 453.866 125.817 440.943 132.371 427.963C137.202 418.395 144.967 410.27 148.767 400.467C154.373 386.006 168.113 375.933 176.042 362.932C187.062 344.861 205.428 333.03 221.648 319.865C233.416 310.314 244.538 300.071 255.919 290.069C281.824 267.302 314.423 252.986 344.857 237.788C360.698 229.877 378.996 224.059 396.219 220.24C418.41 215.321 440.914 208.736 463.536 206.294C497.977 202.577 532.952 202.529 567.414 202.432C597.501 202.348 626.903 206.432 655.698 215.131C675.323 221.06 690.685 237.645 710.091 244.34C725.613 249.695 738.943 260.415 753.427 267.786C759.475 270.864 765.399 276.213 771.17 279.89C776.187 283.086 781.976 289.409 785.754 294.064C793.17 303.201 800.192 312.932 807 322.407C810.828 327.734 818.12 329.197 822.382 334.448C824.829 337.463 827.601 340.814 830.91 342.923C837.421 347.07 842.344 356.016 844.259 363.433C847.177 374.738 852.598 385.169 855.136 396.618" stroke="#FFFF00" stroke-width="100" stroke-linecap="round"/>
<path d="M310.996 432.909C338.447 436.523 365.897 440.137 393.347 443.751C406.196 445.442 417.65 444.104 430.333 445.153C440.464 445.992 450.236 439.061 460.713 438.946C469.497 438.849 477.128 435.214 485.773 435.119C504.154 434.917 523.044 429.298 541.469 427.525C570.199 424.762 593.527 413.112 617.278 397.35C639.329 382.716 654.084 364.643 671.007 344.72C680.023 334.106 686.356 321.672 694.408 310.341C701.254 300.706 709.978 291.498 712.419 279.587C716.551 259.434 722.601 240.088 715.936 219.961C712.98 211.034 708.351 202.62 704.726 193.929C699.528 181.468 690.179 173.505 682.858 162.546C668.766 141.455 650.194 117.539 628.175 103.925C584.059 76.6488 525.604 77.0066 475.715 82.8902C455.674 85.2537 434.777 84.267 415.43 89.4944C384.683 97.8021 351.949 108.834 323.563 123.141C278.163 146.023 235.076 182.128 220.863 232.494C215.206 252.54 214.185 273.714 213.009 294.342C211.628 318.555 217.794 342.256 217.854 366.528C217.883 378.541 220.789 390.109 222.146 401.953C223.322 412.217 223.176 423.228 226.122 433.194C231.185 450.331 239.222 466.115 244.576 483.195C247.264 491.769 250.709 497.79 254.625 505.607C258.029 512.399 259.314 519.751 264.513 525.59C272.147 534.162 276.231 544.437 285.779 551.308C292.266 555.975 297.452 562.158 303.055 567.834C312.621 577.526 326.35 588.198 338.283 593.561C349.925 598.793 357.707 610.265 368.97 616.475C374.125 619.317 379.219 624.132 383.733 627.952C388.473 631.962 394.199 633.702 399.496 636.961C410.265 643.587 427.151 642.298 436.408 651.354C444.494 659.264 461.73 660.603 473.012 662.239C484.647 663.927 495.723 666.963 507.432 668.504C527.029 671.084 545.701 670.939 564.294 663.761C573.344 660.266 586.484 656.169 594.353 650.481C601.849 645.062 613.933 642.105 618.97 634.655" stroke="#00EEFF" stroke-width="100" stroke-linecap="round"/>
<path d="M94.1713 568.84C96.0437 574.327 103.356 572.146 105.164 578.725C105.917 581.466 106.032 588.756 108.679 590.169C111.888 591.883 115.517 596.056 119.041 596.771C128.559 598.701 138.642 598.556 148.024 600.907C170.503 606.539 191.173 602.802 214.548 600.143C226.573 598.775 240.71 596.201 252.411 593.607C268.936 589.944 285.543 588.25 302.256 585.979C339.407 580.932 376.61 574.874 413.286 566.743C426.957 563.712 440.628 560.681 454.298 557.651C470.09 554.15 487.981 550.992 502.872 544.731C512.939 540.498 523.62 539.394 534.005 536.069C547.438 531.768 560.433 526.293 574.005 522.409C586.319 518.885 598.981 515.014 611.455 512.249C619.851 510.387 625.797 505.549 634.2 503.686C654.609 499.161 673.759 491.395 694.229 486.857C725.177 479.996 755.625 470.836 785.577 460.445C801.072 455.069 815.954 449.602 831.181 443.392C840.187 439.718 850.715 438.672 858.659 432.801C871.562 423.267 888.726 418.996 889.245 399.617" stroke="#FFFF00" stroke-width="100" stroke-linecap="round"/>
</svg>
